<svg xmlns="http://www.w3.org/2000/svg" viewBox="0 0 125 60" fill="white"><path d="M 31.25 0.003 C 35.281 -0.041 38.949 0.493 42.256 1.608 C 45.561 2.723 48.562 4.15 51.256 5.889 C 53.951 7.628 56.34 9.456 58.423 11.374 C 59.284 12.176 60.032 12.901 60.665 13.548 C 61.3 14.195 61.934 14.874 62.568 15.587 C 63.111 14.918 63.689 14.273 64.3 13.647 C 64.912 13.023 65.603 12.355 66.372 11.641 C 69.497 8.742 73.369 6.078 77.989 3.649 C 82.609 1.218 87.908 0.003 93.886 0.003 C 99.638 0.003 104.869 1.363 109.579 4.083 C 114.289 6.803 118.036 10.427 120.821 14.953 C 123.607 19.478 125 24.484 125 29.968 C 125 35.497 123.607 40.536 120.821 45.084 C 118.036 49.633 114.289 53.256 109.579 55.954 C 104.869 58.652 99.638 60 93.886 60 C 89.855 60 86.175 59.443 82.846 58.329 C 79.518 57.213 76.506 55.797 73.811 54.081 C 71.116 52.364 68.727 50.569 66.644 48.696 C 65.783 47.894 65.025 47.169 64.368 46.522 C 63.711 45.877 63.111 45.196 62.568 44.482 C 61.979 45.196 61.345 45.898 60.665 46.589 C 59.986 47.281 59.262 47.983 58.492 48.696 C 56.544 50.48 54.223 52.242 51.528 53.981 C 48.833 55.719 45.799 57.158 42.425 58.295 C 39.051 59.432 35.326 60 31.25 60 C 25.499 60 20.268 58.652 15.558 55.954 C 10.847 53.256 7.076 49.633 4.246 45.084 C 1.415 40.536 0 35.497 0 29.968 C 0 24.484 1.415 19.467 4.246 14.918 C 7.076 10.37 10.847 6.736 15.558 4.015 C 20.268 1.296 25.499 -0.041 31.25 0.003 Z M 18.071 29.968 C 18.116 32.242 18.728 34.327 19.905 36.223 C 21.082 38.117 22.667 39.622 24.66 40.737 C 26.653 41.852 28.85 42.41 31.25 42.41 C 34.058 42.41 36.674 41.819 39.096 40.637 C 41.519 39.455 43.84 37.838 46.059 35.788 C 47.328 34.717 48.381 33.681 49.219 32.677 C 50.057 31.674 50.792 30.771 51.426 29.968 C 50.883 29.299 50.057 28.363 48.947 27.159 C 47.838 25.955 46.875 24.974 46.059 24.216 C 44.112 22.388 41.882 20.827 39.368 19.534 C 36.855 18.241 34.149 17.594 31.25 17.594 C 28.85 17.594 26.653 18.152 24.66 19.266 C 22.667 20.381 21.082 21.875 19.905 23.748 C 18.728 25.621 18.116 27.693 18.071 29.968 Z M 106.861 29.968 C 106.906 27.693 106.34 25.621 105.163 23.748 C 103.985 21.875 102.412 20.381 100.442 19.266 C 98.472 18.152 96.286 17.594 93.886 17.594 C 90.897 17.594 88.145 18.263 85.632 19.601 C 83.118 20.938 80.91 22.499 79.008 24.283 C 78.011 25.219 77.026 26.245 76.053 27.36 C 75.079 28.474 74.32 29.343 73.777 29.968 C 74.502 30.949 75.283 31.919 76.121 32.877 C 76.959 33.836 77.921 34.806 79.008 35.788 C 81.182 37.794 83.491 39.399 85.937 40.603 C 88.383 41.807 91.033 42.41 93.886 42.41 C 96.286 42.41 98.472 41.852 100.442 40.737 C 102.412 39.622 103.985 38.117 105.163 36.223 C 106.34 34.327 106.906 32.242 106.861 29.968 Z"/></svg>
